<svg width="100" height="100" viewBox="0 0 100 100" fill="none" xmlns="http://www.w3.org/2000/svg">
<path d="M50 95C74.8528 95 95 74.8528 95 50C95 25.1472 74.8528 5 50 5C25.1472 5 5 25.1472 5 50C5 74.8528 25.1472 95 50 95Z" stroke="white" stroke-width="8"/>
<path d="M58 20H42C38.134 20 35 23.134 35 27V68C35 71.866 38.134 75 42 75H58C61.866 75 65 71.866 65 68V27C65 23.134 61.866 20 58 20Z" fill="#2ECC71"/>
<path d="M57 26H43C41.8954 26 41 26.8954 41 28V36C41 37.1046 41.8954 38 43 38H57C58.1046 38 59 37.1046 59 36V28C59 26.8954 58.1046 26 57 26Z" fill="white"/>
<path d="M54 41L47 55H55L45 71" stroke="white" stroke-width="6" stroke-linecap="round" stroke-linejoin="round"/>
<path d="M47.5 79.5C48.6046 79.5 49.5 78.6046 49.5 77.5C49.5 76.3954 48.6046 75.5 47.5 75.5C46.3954 75.5 45.5 76.3954 45.5 77.5C45.5 78.6046 46.3954 79.5 47.5 79.5Z" fill="white"/>
<path d="M52.5 79.5C53.6046 79.5 54.5 78.6046 54.5 77.5C54.5 76.3954 53.6046 75.5 52.5 75.5C51.3954 75.5 50.5 76.3954 50.5 77.5C50.5 78.6046 51.3954 79.5 52.5 79.5Z" fill="white"/>
</svg>
